<svg xmlns="http://www.w3.org/2000/svg" width="960" height="720" viewBox="0 0 960 720">
  <defs>
    <radialGradient id="bg" cx="48%" cy="38%" r="78%"><stop stop-color="#4c3b28"/><stop offset="1" stop-color="#14100d"/></radialGradient>
    <linearGradient id="shine" x1="0" y1="0" x2="1" y2="1"><stop stop-color="#fff" stop-opacity=".18"/><stop offset="1" stop-color="#fff" stop-opacity="0"/></linearGradient>
    <filter id="shadow" x="-30%" y="-30%" width="160%" height="160%"><feDropShadow dx="0" dy="16" stdDeviation="18" flood-color="#000" flood-opacity=".38"/></filter>
  </defs>
  <rect width="960" height="720" fill="url(#bg)"/>
  <circle cx="128" cy="110" r="76" fill="#fff" opacity=".025"/><circle cx="850" cy="130" r="120" fill="#fff" opacity=".025"/>
  <path d="M0 570 Q240 520 480 565 T960 555 V720 H0Z" fill="#09070d" opacity=".28"/>
  <g filter="url(#shadow)" >
    <path d="M210 340 Q480 600 750 340 L685 535 Q480 635 275 535Z" fill="#24272c"/>
    <ellipse cx="480" cy="345" rx="270" ry="132" fill="#f2e8d2"/>
    <path d="M480 345L305 275A190 115 0 0 0 270 365Z" fill="#72a64b"/><path d="M480 345L390 235A190 115 0 0 0 305 275Z" fill="#d47b35"/>
    <path d="M480 345L575 245A190 115 0 0 0 390 235Z" fill="#8b5637"/><path d="M480 345L690 320A190 115 0 0 0 575 245Z" fill="#c94b40"/>
    <path d="M480 345L270 365A190 115 0 0 0 690 320Z" fill="#efd86a"/>
    <circle cx="480" cy="345" r="76" fill="#fff7dd"/><circle cx="480" cy="345" r="37" fill="#f3a51f"/></g>
  <g font-family="'Noto Sans SC','PingFang SC',sans-serif" text-anchor="middle">
    <text x="480" y="620" fill="#ffd23f" font-size="42" font-weight="800" letter-spacing="5">韩式拌饭</text>
    <text x="480" y="665" fill="#fff" opacity=".56" font-size="23" letter-spacing="2">蔬菜肉蛋 · 一碗拌开</text>
  </g>
  <rect x="18" y="18" width="924" height="684" rx="30" fill="none" stroke="#fff" opacity=".05"/>
</svg>