<svg xmlns="http://www.w3.org/2000/svg" width="960" height="720" viewBox="0 0 960 720">
  <defs>
    <radialGradient id="bg" cx="48%" cy="38%" r="78%"><stop stop-color="#6a4817"/><stop offset="1" stop-color="#17120c"/></radialGradient>
    <linearGradient id="shine" x1="0" y1="0" x2="1" y2="1"><stop stop-color="#fff" stop-opacity=".18"/><stop offset="1" stop-color="#fff" stop-opacity="0"/></linearGradient>
    <filter id="shadow" x="-30%" y="-30%" width="160%" height="160%"><feDropShadow dx="0" dy="16" stdDeviation="18" flood-color="#000" flood-opacity=".38"/></filter>
  </defs>
  <rect width="960" height="720" fill="url(#bg)"/>
  <circle cx="128" cy="110" r="76" fill="#fff" opacity=".025"/><circle cx="850" cy="130" r="120" fill="#fff" opacity=".025"/>
  <path d="M0 570 Q240 520 480 565 T960 555 V720 H0Z" fill="#09070d" opacity=".28"/>
  <g filter="url(#shadow)" >
    <path d="M220 340 Q480 555 740 340 L680 520 Q480 620 280 520Z" fill="#273143"/>
    <ellipse cx="480" cy="350" rx="260" ry="120" fill="#e7b83e"/>
    <g fill="#fff0a6"><circle cx="330" cy="320" r="15"/><circle cx="390" cy="380" r="13"/><circle cx="470" cy="300" r="14"/><circle cx="560" cy="365" r="16"/><circle cx="635" cy="320" r="13"/></g>
    <g fill="#61a84d"><rect x="350" y="335" width="34" height="13" rx="6" transform="rotate(20 350 335)"/><rect x="520" y="315" width="38" height="14" rx="6" transform="rotate(-18 520 315)"/><rect x="600" y="385" width="32" height="13" rx="6"/></g>
    <g fill="#f28e45"><rect x="405" y="325" width="30" height="25" rx="7"/><rect x="550" y="400" width="32" height="24" rx="7"/></g></g>
  <g font-family="'Noto Sans SC','PingFang SC',sans-serif" text-anchor="middle">
    <text x="480" y="620" fill="#ffd23f" font-size="42" font-weight="800" letter-spacing="5">炒饭</text>
    <text x="480" y="665" fill="#fff" opacity=".56" font-size="23" letter-spacing="2">粒粒分明 · 锅气十足</text>
  </g>
  <rect x="18" y="18" width="924" height="684" rx="30" fill="none" stroke="#fff" opacity=".05"/>
</svg>