<svg xmlns="http://www.w3.org/2000/svg" width="960" height="720" viewBox="0 0 960 720">
  <defs>
    <radialGradient id="bg" cx="48%" cy="38%" r="78%"><stop stop-color="#6b4c16"/><stop offset="1" stop-color="#1b130b"/></radialGradient>
    <linearGradient id="shine" x1="0" y1="0" x2="1" y2="1"><stop stop-color="#fff" stop-opacity=".18"/><stop offset="1" stop-color="#fff" stop-opacity="0"/></linearGradient>
    <filter id="shadow" x="-30%" y="-30%" width="160%" height="160%"><feDropShadow dx="0" dy="16" stdDeviation="18" flood-color="#000" flood-opacity=".38"/></filter>
  </defs>
  <rect width="960" height="720" fill="url(#bg)"/>
  <circle cx="128" cy="110" r="76" fill="#fff" opacity=".025"/><circle cx="850" cy="130" r="120" fill="#fff" opacity=".025"/>
  <path d="M0 570 Q240 520 480 565 T960 555 V720 H0Z" fill="#09070d" opacity=".28"/>
  <g filter="url(#shadow)" >
    <ellipse cx="480" cy="420" rx="290" ry="145" fill="#eee5d2"/>
    <path d="M215 410 Q340 250 500 350 Q570 405 540 515 Q320 555 215 410Z" fill="#fff8e8"/>
    <path d="M485 330 Q695 300 745 430 Q690 550 500 520 Q565 425 485 330Z" fill="#bd7628"/>
    <g fill="#e5ad48"><rect x="560" y="365" width="70" height="58" rx="14"/><rect x="625" y="430" width="68" height="55" rx="14"/></g>
    <g fill="#8f512a"><rect x="535" y="450" width="72" height="53" rx="15"/><rect x="650" y="350" width="58" height="52" rx="14"/></g></g>
  <g font-family="'Noto Sans SC','PingFang SC',sans-serif" text-anchor="middle">
    <text x="480" y="620" fill="#ffd23f" font-size="42" font-weight="800" letter-spacing="5">咖喱饭</text>
    <text x="480" y="665" fill="#fff" opacity=".56" font-size="23" letter-spacing="2">浓郁 · 暖胃</text>
  </g>
  <rect x="18" y="18" width="924" height="684" rx="30" fill="none" stroke="#fff" opacity=".05"/>
</svg>