<svg xmlns="http://www.w3.org/2000/svg" width="960" height="720" viewBox="0 0 960 720">
  <defs>
    <radialGradient id="bg" cx="48%" cy="38%" r="78%"><stop stop-color="#6b2f1e"/><stop offset="1" stop-color="#1b0f0d"/></radialGradient>
    <linearGradient id="shine" x1="0" y1="0" x2="1" y2="1"><stop stop-color="#fff" stop-opacity=".18"/><stop offset="1" stop-color="#fff" stop-opacity="0"/></linearGradient>
    <filter id="shadow" x="-30%" y="-30%" width="160%" height="160%"><feDropShadow dx="0" dy="16" stdDeviation="18" flood-color="#000" flood-opacity=".38"/></filter>
  </defs>
  <rect width="960" height="720" fill="url(#bg)"/>
  <circle cx="128" cy="110" r="76" fill="#fff" opacity=".025"/><circle cx="850" cy="130" r="120" fill="#fff" opacity=".025"/>
  <path d="M0 570 Q240 520 480 565 T960 555 V720 H0Z" fill="#09070d" opacity=".28"/>
  <g filter="url(#shadow)" >
    <path d="M205 350 Q480 610 755 350 L690 545 Q480 650 270 545Z" fill="#2c2523"/>
    <ellipse cx="480" cy="355" rx="275" ry="138" fill="#8e3f25"/>
    <g fill="#c77a3d"><circle cx="335" cy="340" r="62"/><circle cx="465" cy="305" r="66"/><circle cx="585" cy="365" r="70"/><circle cx="440" cy="420" r="58"/></g>
    <g fill="#7aae4d"><circle cx="320" cy="420" r="34"/><circle cx="620" cy="300" r="38"/></g>
    <g fill="#d9b254"><rect x="520" y="410" width="80" height="48" rx="12"/><rect x="365" y="275" width="60" height="44" rx="12"/></g></g>
  <g font-family="'Noto Sans SC','PingFang SC',sans-serif" text-anchor="middle">
    <text x="480" y="620" fill="#ffd23f" font-size="42" font-weight="800" letter-spacing="5">鸡公煲</text>
    <text x="480" y="665" fill="#fff" opacity=".56" font-size="23" letter-spacing="2">浓香酱汁 · 越炖越入味</text>
  </g>
  <rect x="18" y="18" width="924" height="684" rx="30" fill="none" stroke="#fff" opacity=".05"/>
</svg>