<svg xmlns="http://www.w3.org/2000/svg" width="960" height="720" viewBox="0 0 960 720">
  <defs>
    <radialGradient id="bg" cx="48%" cy="38%" r="78%"><stop stop-color="#63271f"/><stop offset="1" stop-color="#170d0c"/></radialGradient>
    <linearGradient id="shine" x1="0" y1="0" x2="1" y2="1"><stop stop-color="#fff" stop-opacity=".18"/><stop offset="1" stop-color="#fff" stop-opacity="0"/></linearGradient>
    <filter id="shadow" x="-30%" y="-30%" width="160%" height="160%"><feDropShadow dx="0" dy="16" stdDeviation="18" flood-color="#000" flood-opacity=".38"/></filter>
  </defs>
  <rect width="960" height="720" fill="url(#bg)"/>
  <circle cx="128" cy="110" r="76" fill="#fff" opacity=".025"/><circle cx="850" cy="130" r="120" fill="#fff" opacity=".025"/>
  <path d="M0 570 Q240 520 480 565 T960 555 V720 H0Z" fill="#09070d" opacity=".28"/>
  <g filter="url(#shadow)" >
    <rect x="170" y="240" width="620" height="315" rx="80" fill="#26252a"/>
    <path d="M285 390 Q430 210 625 330 Q680 365 700 390 Q620 510 430 485 Q330 470 285 390Z" fill="#c67b42"/>
    <path d="M285 390L215 315L220 465Z" fill="#b96837"/><circle cx="630" cy="365" r="13" fill="#16131a"/>
    <g stroke="#6e321e" stroke-width="13"><path d="M360 315l-20 145"/><path d="M430 285l-18 190"/><path d="M505 290l-15 188"/></g>
    <g fill="#d94435"><circle cx="265" cy="285" r="23"/><circle cx="720" cy="470" r="25"/></g>
    <g fill="#7ca34d"><circle cx="250" cy="500" r="30"/><circle cx="690" cy="290" r="34"/></g></g>
  <g font-family="'Noto Sans SC','PingFang SC',sans-serif" text-anchor="middle">
    <text x="480" y="620" fill="#ffd23f" font-size="42" font-weight="800" letter-spacing="5">зғӨйұј</text>
    <text x="480" y="665" fill="#fff" opacity=".56" font-size="23" letter-spacing="2">з„ҰйҰҷйұјзҡ® В· йҰҷиҫЈй…ҚиҸң</text>
  </g>
  <rect x="18" y="18" width="924" height="684" rx="30" fill="none" stroke="#fff" opacity=".05"/>
</svg>