<svg xmlns="http://www.w3.org/2000/svg" width="960" height="720" viewBox="0 0 960 720">
  <defs>
    <radialGradient id="bg" cx="48%" cy="38%" r="78%"><stop stop-color="#70491d"/><stop offset="1" stop-color="#18100c"/></radialGradient>
    <linearGradient id="shine" x1="0" y1="0" x2="1" y2="1"><stop stop-color="#fff" stop-opacity=".18"/><stop offset="1" stop-color="#fff" stop-opacity="0"/></linearGradient>
    <filter id="shadow" x="-30%" y="-30%" width="160%" height="160%"><feDropShadow dx="0" dy="16" stdDeviation="18" flood-color="#000" flood-opacity=".38"/></filter>
  </defs>
  <rect width="960" height="720" fill="url(#bg)"/>
  <circle cx="128" cy="110" r="76" fill="#fff" opacity=".025"/><circle cx="850" cy="130" r="120" fill="#fff" opacity=".025"/>
  <path d="M0 570 Q240 520 480 565 T960 555 V720 H0Z" fill="#09070d" opacity=".28"/>
  <g filter="url(#shadow)" >
    <ellipse cx="480" cy="440" rx="300" ry="135" fill="#ede8dd"/>
    <path d="M255 410 Q300 250 480 245 Q660 250 705 410 Q650 520 480 535 Q310 520 255 410Z" fill="#efbd39"/>
    <path d="M320 405 Q480 300 640 405" fill="none" stroke="#c94435" stroke-width="24" stroke-linecap="round"/>
    <path d="M385 365q95-75 190 0" fill="none" stroke="#d76e32" stroke-width="15" stroke-linecap="round"/></g>
  <g font-family="'Noto Sans SC','PingFang SC',sans-serif" text-anchor="middle">
    <text x="480" y="620" fill="#ffd23f" font-size="42" font-weight="800" letter-spacing="5">蛋包饭</text>
    <text x="480" y="665" fill="#fff" opacity=".56" font-size="23" letter-spacing="2">软嫩蛋皮 · 热乎炒饭</text>
  </g>
  <rect x="18" y="18" width="924" height="684" rx="30" fill="none" stroke="#fff" opacity=".05"/>
</svg>