<svg xmlns="http://www.w3.org/2000/svg" width="960" height="720" viewBox="0 0 960 720">
  <defs>
    <radialGradient id="bg" cx="48%" cy="38%" r="78%"><stop stop-color="#3e4a43"/><stop offset="1" stop-color="#101412"/></radialGradient>
    <linearGradient id="shine" x1="0" y1="0" x2="1" y2="1"><stop stop-color="#fff" stop-opacity=".18"/><stop offset="1" stop-color="#fff" stop-opacity="0"/></linearGradient>
    <filter id="shadow" x="-30%" y="-30%" width="160%" height="160%"><feDropShadow dx="0" dy="16" stdDeviation="18" flood-color="#000" flood-opacity=".38"/></filter>
  </defs>
  <rect width="960" height="720" fill="url(#bg)"/>
  <circle cx="128" cy="110" r="76" fill="#fff" opacity=".025"/><circle cx="850" cy="130" r="120" fill="#fff" opacity=".025"/>
  <path d="M0 570 Q240 520 480 565 T960 555 V720 H0Z" fill="#09070d" opacity=".28"/>
  <g filter="url(#shadow)" >
    <path d="M220 335 Q480 585 740 335 L680 520 Q480 620 280 520Z" fill="#d7d1c4"/>
    <ellipse cx="480" cy="340" rx="260" ry="120" fill="#f2ead8"/>
    <g fill="#3d4b3d"><path d="M325 315l72-25 45 48-76 40z"/><path d="M545 300l72 28-18 62-78-30z"/></g>
    <g fill="#ba7858"><rect x="410" y="350" width="75" height="28" rx="12" transform="rotate(15 410 350)"/><rect x="505" y="385" width="78" height="28" rx="12" transform="rotate(-15 505 385)"/></g>
    <g stroke="#6aa957" stroke-width="12" stroke-linecap="round"><path d="M355 405l30-16"/><path d="M575 348l31-18"/><path d="M465 285l25-18"/></g></g>
  <g font-family="'Noto Sans SC','PingFang SC',sans-serif" text-anchor="middle">
    <text x="480" y="620" fill="#ffd23f" font-size="42" font-weight="800" letter-spacing="5">皮蛋瘦肉粥</text>
    <text x="480" y="665" fill="#fff" opacity=".56" font-size="23" letter-spacing="2">绵软 · 温暖</text>
  </g>
  <rect x="18" y="18" width="924" height="684" rx="30" fill="none" stroke="#fff" opacity=".05"/>
</svg>