<svg xmlns="http://www.w3.org/2000/svg" width="960" height="720" viewBox="0 0 960 720">
  <defs>
    <radialGradient id="bg" cx="48%" cy="38%" r="78%"><stop stop-color="#6f321e"/><stop offset="1" stop-color="#1d1012"/></radialGradient>
    <linearGradient id="shine" x1="0" y1="0" x2="1" y2="1"><stop stop-color="#fff" stop-opacity=".18"/><stop offset="1" stop-color="#fff" stop-opacity="0"/></linearGradient>
    <filter id="shadow" x="-30%" y="-30%" width="160%" height="160%"><feDropShadow dx="0" dy="16" stdDeviation="18" flood-color="#000" flood-opacity=".38"/></filter>
  </defs>
  <rect width="960" height="720" fill="url(#bg)"/>
  <circle cx="128" cy="110" r="76" fill="#fff" opacity=".025"/><circle cx="850" cy="130" r="120" fill="#fff" opacity=".025"/>
  <path d="M0 570 Q240 520 480 565 T960 555 V720 H0Z" fill="#09070d" opacity=".28"/>
  <g filter="url(#shadow)" >
    <ellipse cx="480" cy="400" rx="275" ry="115" fill="#d38a3d"/>
    <path d="M225 395 Q480 145 735 395 Q480 330 225 395Z" fill="#f1bd69"/>
    <path d="M260 390 Q480 290 700 390 Q645 480 480 495 Q315 480 260 390Z" fill="#73361f"/>
    <g fill="#b76231"><circle cx="350" cy="390" r="34"/><circle cx="430" cy="414" r="39"/><circle cx="520" cy="386" r="42"/><circle cx="610" cy="410" r="35"/></g>
    <g fill="#65a84d"><path d="M315 350l42-28 20 52z"/><path d="M555 350l46-32 18 56z"/><path d="M448 348l38-30 19 55z"/></g></g>
  <g font-family="'Noto Sans SC','PingFang SC',sans-serif" text-anchor="middle">
    <text x="480" y="620" fill="#ffd23f" font-size="42" font-weight="800" letter-spacing="5">ŤāČŚ§Ļť¶ć</text>
    <text x="480" y="665" fill="#fff" opacity=".56" font-size="23" letter-spacing="2">ťÖ•ť¶ć ¬∑ ŤÖäśĪĀŤāČ</text>
  </g>
  <rect x="18" y="18" width="924" height="684" rx="30" fill="none" stroke="#fff" opacity=".05"/>
</svg>