<svg xmlns="http://www.w3.org/2000/svg" width="960" height="720" viewBox="0 0 960 720">
  <defs>
    <radialGradient id="bg" cx="48%" cy="38%" r="78%"><stop stop-color="#672341"/><stop offset="1" stop-color="#180d18"/></radialGradient>
    <linearGradient id="shine" x1="0" y1="0" x2="1" y2="1"><stop stop-color="#fff" stop-opacity=".18"/><stop offset="1" stop-color="#fff" stop-opacity="0"/></linearGradient>
    <filter id="shadow" x="-30%" y="-30%" width="160%" height="160%"><feDropShadow dx="0" dy="16" stdDeviation="18" flood-color="#000" flood-opacity=".38"/></filter>
  </defs>
  <rect width="960" height="720" fill="url(#bg)"/>
  <circle cx="128" cy="110" r="76" fill="#fff" opacity=".025"/><circle cx="850" cy="130" r="120" fill="#fff" opacity=".025"/>
  <path d="M0 570 Q240 520 480 565 T960 555 V720 H0Z" fill="#09070d" opacity=".28"/>
  <g filter="url(#shadow)" >
    <path d="M350 300h260l45 245H305z" fill="#f6d273"/><path d="M330 300q150-150 300 0" fill="#ff8cad"/>
    <path d="M480 190v85" stroke="#fff" stroke-width="18"/><circle cx="480" cy="175" r="24" fill="#ffcf3c"/>
    <g fill="#8d5ce8"><circle cx="280" cy="250" r="20"/><circle cx="690" cy="310" r="18"/></g><g fill="#55d3bd"><rect x="230" y="390" width="35" height="18" transform="rotate(30 230 390)"/><rect x="690" y="430" width="38" height="18" transform="rotate(-25 690 430)"/></g></g>
  <g font-family="'Noto Sans SC','PingFang SC',sans-serif" text-anchor="middle">
    <text x="480" y="620" fill="#ffcc66" font-size="42" font-weight="800" letter-spacing="5">今天放纵</text>
    <text x="480" y="665" fill="#fff" opacity=".56" font-size="23" letter-spacing="2">热量休假 · 快乐加倍</text>
  </g>
  <rect x="18" y="18" width="924" height="684" rx="30" fill="none" stroke="#fff" opacity=".05"/>
</svg>