<svg xmlns="http://www.w3.org/2000/svg" width="960" height="720" viewBox="0 0 960 720">
  <defs>
    <radialGradient id="bg" cx="48%" cy="38%" r="78%"><stop stop-color="#6d4618"/><stop offset="1" stop-color="#1b1010"/></radialGradient>
    <linearGradient id="shine" x1="0" y1="0" x2="1" y2="1"><stop stop-color="#fff" stop-opacity=".18"/><stop offset="1" stop-color="#fff" stop-opacity="0"/></linearGradient>
    <filter id="shadow" x="-30%" y="-30%" width="160%" height="160%"><feDropShadow dx="0" dy="16" stdDeviation="18" flood-color="#000" flood-opacity=".38"/></filter>
  </defs>
  <rect width="960" height="720" fill="url(#bg)"/>
  <circle cx="128" cy="110" r="76" fill="#fff" opacity=".025"/><circle cx="850" cy="130" r="120" fill="#fff" opacity=".025"/>
  <path d="M0 570 Q240 520 480 565 T960 555 V720 H0Z" fill="#09070d" opacity=".28"/>
  <g filter="url(#shadow)" >
    <ellipse cx="480" cy="470" rx="270" ry="85" fill="#e7b53d"/><ellipse cx="480" cy="450" rx="210" ry="55" fill="#fff3c8"/>
    <path d="M360 340q-70-120 55-145q65-105 130 0q125 25 55 145z" fill="#fff7df"/>
    <path d="M385 340h190v115H385z" fill="#f5e7c4"/><g fill="#ffd95a"><circle cx="260" cy="240" r="13"/><circle cx="700" cy="210" r="17"/><circle cx="745" cy="390" r="11"/></g></g>
  <g font-family="'Noto Sans SC','PingFang SC',sans-serif" text-anchor="middle">
    <text x="480" y="620" fill="#ffd95a" font-size="42" font-weight="800" letter-spacing="5">食神之选</text>
    <text x="480" y="665" fill="#fff" opacity=".56" font-size="23" letter-spacing="2">全图鉴的终极奖励</text>
  </g>
  <rect x="18" y="18" width="924" height="684" rx="30" fill="none" stroke="#fff" opacity=".05"/>
</svg>