<svg xmlns="http://www.w3.org/2000/svg" width="960" height="720" viewBox="0 0 960 720">
  <defs>
    <radialGradient id="bg" cx="48%" cy="38%" r="78%"><stop stop-color="#542036"/><stop offset="1" stop-color="#140c17"/></radialGradient>
    <linearGradient id="shine" x1="0" y1="0" x2="1" y2="1"><stop stop-color="#fff" stop-opacity=".18"/><stop offset="1" stop-color="#fff" stop-opacity="0"/></linearGradient>
    <filter id="shadow" x="-30%" y="-30%" width="160%" height="160%"><feDropShadow dx="0" dy="16" stdDeviation="18" flood-color="#000" flood-opacity=".38"/></filter>
  </defs>
  <rect width="960" height="720" fill="url(#bg)"/>
  <circle cx="128" cy="110" r="76" fill="#fff" opacity=".025"/><circle cx="850" cy="130" r="120" fill="#fff" opacity=".025"/>
  <path d="M0 570 Q240 520 480 565 T960 555 V720 H0Z" fill="#09070d" opacity=".28"/>
  <g filter="url(#shadow)" >
    <path d="M330 310h300l35 235H295z" fill="#e8b86a"/><path d="M380 310q0-105 100-105t100 105" fill="none" stroke="#ffe0a1" stroke-width="22"/>
    <path d="M170 410q100-35 170 20l90 70-80 70-110-70-90-15z" fill="#7764d8"/><circle cx="535" cy="405" r="70" fill="#fff" opacity=".13"/>
    <path d="M515 365l45 38-45 38" fill="none" stroke="#ff6b8a" stroke-width="18" stroke-linecap="round"/></g>
  <g font-family="'Noto Sans SC','PingFang SC',sans-serif" text-anchor="middle">
    <text x="480" y="620" fill="#ff6b8a" font-size="42" font-weight="800" letter-spacing="5">偷吃他人外卖</text>
    <text x="480" y="665" fill="#fff" opacity=".56" font-size="23" letter-spacing="2">伸手之前，先看看失主</text>
  </g>
  <rect x="18" y="18" width="924" height="684" rx="30" fill="none" stroke="#fff" opacity=".05"/>
</svg>