<svg xmlns="http://www.w3.org/2000/svg" width="960" height="720" viewBox="0 0 960 720">
  <defs>
    <radialGradient id="bg" cx="48%" cy="38%" r="78%"><stop stop-color="#27573d"/><stop offset="1" stop-color="#0f1a14"/></radialGradient>
    <linearGradient id="shine" x1="0" y1="0" x2="1" y2="1"><stop stop-color="#fff" stop-opacity=".18"/><stop offset="1" stop-color="#fff" stop-opacity="0"/></linearGradient>
    <filter id="shadow" x="-30%" y="-30%" width="160%" height="160%"><feDropShadow dx="0" dy="16" stdDeviation="18" flood-color="#000" flood-opacity=".38"/></filter>
  </defs>
  <rect width="960" height="720" fill="url(#bg)"/>
  <circle cx="128" cy="110" r="76" fill="#fff" opacity=".025"/><circle cx="850" cy="130" r="120" fill="#fff" opacity=".025"/>
  <path d="M0 570 Q240 520 480 565 T960 555 V720 H0Z" fill="#09070d" opacity=".28"/>
  <g filter="url(#shadow)" fill="none" stroke="#f2d27a" stroke-width="14" stroke-linecap="round" stroke-linejoin="round"><path d="M350 430q-20-160 130-180q155 35 120 190q-90 85-250-10z"/><circle cx="555" cy="290" r="20"/><path d="M570 300l65 25-60 20M405 430q75 70 150 0"/></g>
  <g font-family="'Noto Sans SC','PingFang SC',sans-serif" text-anchor="middle">
    <text x="480" y="620" fill="#f2d27a" font-size="42" font-weight="800" letter-spacing="5">老乡鸡</text>
    <text x="480" y="665" fill="#fff" opacity=".56" font-size="23" letter-spacing="2">家常菜 · 热汤 · 米饭</text>
  </g>
  <rect x="18" y="18" width="924" height="684" rx="30" fill="none" stroke="#fff" opacity=".05"/>
</svg>