<svg xmlns="http://www.w3.org/2000/svg" width="960" height="720" viewBox="0 0 960 720">
  <defs>
    <radialGradient id="bg" cx="48%" cy="38%" r="78%"><stop stop-color="#7a251e"/><stop offset="1" stop-color="#1c0e0c"/></radialGradient>
    <linearGradient id="shine" x1="0" y1="0" x2="1" y2="1"><stop stop-color="#fff" stop-opacity=".18"/><stop offset="1" stop-color="#fff" stop-opacity="0"/></linearGradient>
    <filter id="shadow" x="-30%" y="-30%" width="160%" height="160%"><feDropShadow dx="0" dy="16" stdDeviation="18" flood-color="#000" flood-opacity=".38"/></filter>
  </defs>
  <rect width="960" height="720" fill="url(#bg)"/>
  <circle cx="128" cy="110" r="76" fill="#fff" opacity=".025"/><circle cx="850" cy="130" r="120" fill="#fff" opacity=".025"/>
  <path d="M0 570 Q240 520 480 565 T960 555 V720 H0Z" fill="#09070d" opacity=".28"/>
  <g filter="url(#shadow)" fill="none" stroke="#ffd43b" stroke-width="14" stroke-linecap="round" stroke-linejoin="round"><path d="M325 485q35-250 155-250q120 0 155 250M325 485q25-180 90-180q65 0 65 180M480 485q0-180 65-180q65 0 90 180"/></g>
  <g font-family="'Noto Sans SC','PingFang SC',sans-serif" text-anchor="middle">
    <text x="480" y="620" fill="#ffd43b" font-size="42" font-weight="800" letter-spacing="5">麦当劳</text>
    <text x="480" y="665" fill="#fff" opacity=".56" font-size="23" letter-spacing="2">汉堡 · 薯条 · 饮料</text>
  </g>
  <rect x="18" y="18" width="924" height="684" rx="30" fill="none" stroke="#fff" opacity=".05"/>
</svg>